<?xml version="1.0" encoding="utf-8"?>
<!-- Generator: Adobe Illustrator 17.0.0, SVG Export Plug-In . SVG Version: 6.00 Build 0)  -->
<!DOCTYPE svg PUBLIC "-//W3C//DTD SVG 1.1//EN" "http://www.w3.org/Graphics/SVG/1.1/DTD/svg11.dtd">
<svg version="1.1" id="Layer_1" xmlns="http://www.w3.org/2000/svg" xmlns:xlink="http://www.w3.org/1999/xlink" x="0px" y="0px"
	 width="612px" height="792px" viewBox="0 0 612 792" enable-background="new 0 0 612 792" xml:space="preserve">
<g>
	<g>
		<g>
			<path fill-rule="evenodd" clip-rule="evenodd" fill="#502D24" d="M107.634,503.886l19.173-156.053
				c0.059-0.487,0-0.93-0.171-1.321c-0.168-0.377-0.473-0.754-0.914-1.121c-0.424-0.353-0.885-0.612-1.375-0.783
				c-0.481-0.153-1.05-0.242-1.704-0.242H16.277c-0.653,0-1.221,0.089-1.704,0.242c-0.49,0.171-0.954,0.43-1.375,0.783
				c-0.444,0.367-0.745,0.744-0.915,1.121c-0.17,0.383-0.23,0.834-0.17,1.321l19.173,156.053c0.232,1.91,1.408,3.593,3.15,4.795
				c1.74,1.203,4.065,1.926,6.616,1.926h56.815c2.554,0,4.878-0.723,6.614-1.926C106.226,507.479,107.402,505.797,107.634,503.886z"
				/>
			<polygon fill-rule="evenodd" clip-rule="evenodd" fill="#A67B5C" points="15.425,389.128 123.494,389.128 117.075,451.741 
				21.849,451.741 			"/>
			<path fill-rule="evenodd" clip-rule="evenodd" fill="#704F38" d="M91.59,401.357c0.847,1.069,1.482,2.272,1.9,3.573
				c-1.199-0.569-2.505-1.02-4.023-1.403c-3.527-0.664-6.216-0.376-9.614,0.738c-6.424,2.419-10.839,6.381-15.506,11.283
				c-4.204,4.576-7.7,9.166-11.374,14.151c-1.295,1.549-2.53,3.304-3.832,4.907c-0.347,0.428-0.771,0.815-1.154,1.208
				c-0.298,0.251-0.219,0.161,0.175,0.155c0.115,0.17-0.404,0.096-1.217-0.066c-5.411-7.716-0.346-21.32,11.604-30.784
				C70.773,395.433,85.563,393.745,91.59,401.357L91.59,401.357z M93.699,405.65c-1.342-0.539-2.784-0.907-4.452-1.113
				c-3.318-0.295-5.749,0.193-8.785,1.541c-5.721,2.974-9.446,7.134-13.353,12.151c-3.351,4.926-6.982,9.717-9.814,14.981
				c-1.25,1.919-2.494,3.845-3.853,5.682c-0.137,0.171-0.601,0.708-1.045,1.186c7.276,2.833,18.413,0.155,27.972-7.421
				C90.55,424.588,95.736,413.515,93.699,405.65z"/>
			<path fill-rule="evenodd" clip-rule="evenodd" fill="#A67B5C" d="M5.755,317.869H133.17c3.161,0,5.749,2.59,5.749,5.752v11.514
				c0,3.158-2.588,5.747-5.749,5.747H5.755c-3.165,0-5.755-2.589-5.755-5.747v-11.514C0,320.459,2.589,317.869,5.755,317.869z"/>
		</g>
		<path fill-rule="evenodd" clip-rule="evenodd" fill="#A67B5C" d="M113.311,284.297h-5.925l-2.968-7.511h-6.742l-3.06,7.511H25.612
			c-4.238,0-7.702,3.467-7.702,7.702v15.409c0,4.234,3.464,7.702,7.702,7.702h87.699c4.238,0,7.696-3.468,7.696-7.702v-15.409
			C121.008,287.764,117.55,284.297,113.311,284.297z"/>
	</g>
	<rect x="135.351" y="396.501" fill-rule="evenodd" clip-rule="evenodd" fill="none" width="491.504" height="47.867"/>
	<text transform="matrix(1 0 0 1 135.3513 442.0401)" fill="#A67B5C" font-family="'Kodchasan-Medium'" font-size="60">COFFEE TO GO</text>
</g>
</svg>
